HIERARCHY
ROOT SpineBase
{
  OFFSET 0.000000 0.000000 0.000000
  CHANNELS 6 Xposition Yposition Zposition Zrotation Xrotation Yrotation
  JOINT SpineMid
  {
    OFFSET 0.000000 32.129074 0.000000
    CHANNELS 3 Zrotation Xrotation Yrotation
    JOINT SpineShoulder
    {
      OFFSET 0.115926 23.791899 -0.959207
      CHANNELS 3 Zrotation Xrotation Yrotation
      JOINT Neck
      {
        OFFSET 0.094868 7.841192 -0.608277
        CHANNELS 3 Zrotation Xrotation Yrotation
        JOINT Head
        {
          OFFSET -4.513123 14.565584 -1.107107
          CHANNELS 3 Zrotation Xrotation Yrotation
          End Site
          {
            OFFSET 0 0 0
          }
        }
      }
      JOINT ShoulderLeft
      {
        OFFSET -18.285868 -6.089073 4.810216
        CHANNELS 3 Zrotation Xrotation Yrotation
        JOINT ElbowLeft
        {
          OFFSET -2.940773 -26.745484 3.706223
          CHANNELS 3 Zrotation Xrotation Yrotation
          JOINT WristLeft
          {
            OFFSET -2.750169 -25.943179 -1.631548
            CHANNELS 3 Zrotation Xrotation Yrotation
            JOINT HandLeft
            {
              OFFSET -0.283241 -6.668267 -0.855582
              CHANNELS 3 Zrotation Xrotation Yrotation
              JOINT HandTipLeft
              {
                OFFSET -0.281049 -6.653738 -2.508496
                CHANNELS 3 Zrotation Xrotation Yrotation
                End Site
                {
                  OFFSET 0 0 0
                }
              }
              JOINT ThumbLeft
              {
                OFFSET -2.495939 -0.647967 -3.257681
                CHANNELS 3 Zrotation Xrotation Yrotation
                End Site
                {
                  OFFSET 0 0 0
                }
              }
            }
          }
        }
      }
      JOINT ShoulderRight
      {
        OFFSET 15.794052 -3.265556 -6.755902
        CHANNELS 3 Zrotation Xrotation Yrotation
        JOINT ElbowRight
        {
          OFFSET 7.267436 -26.505033 -0.739699
          CHANNELS 3 Zrotation Xrotation Yrotation
          JOINT WristRight
          {
            OFFSET 1.919648 -23.600012 -5.348504
            CHANNELS 3 Zrotation Xrotation Yrotation
            JOINT HandRight
            {
              OFFSET -1.579464 -6.988766 -0.457768
              CHANNELS 3 Zrotation Xrotation Yrotation
              JOINT HandTipRight
              {
                OFFSET 0.378661 -6.771085 -0.576781
                CHANNELS 3 Zrotation Xrotation Yrotation
                End Site
                {
                  OFFSET 0 0 0
                }
              }
              JOINT ThumbRight
              {
                OFFSET 3.165210 -2.127311 -1.703205
                CHANNELS 3 Zrotation Xrotation Yrotation
                End Site
                {
                  OFFSET 0 0 0
                }
              }
            }
          }
        }
      }
    }
  }
  JOINT HipLeft
  {
    OFFSET -6.295934 0.170989 -1.939810
    CHANNELS 3 Zrotation Xrotation Yrotation
    JOINT KneeLeft
    {
      OFFSET 0.225180 -34.949854 4.100904
      CHANNELS 3 Zrotation Xrotation Yrotation
      JOINT AnkleLeft
      {
        OFFSET 3.936263 -36.085452 8.107590
        CHANNELS 3 Zrotation Xrotation Yrotation
        JOINT FootLeft
        {
          OFFSET -1.034633 -7.469345 -7.684159
          CHANNELS 3 Zrotation Xrotation Yrotation
          End Site
          {
            OFFSET 0 0 0
          }
        }
      }
    }
  }
  JOINT HipRight
  {
    OFFSET 7.748548 1.681053 -5.420038
    CHANNELS 3 Zrotation Xrotation Yrotation
    JOINT KneeRight
    {
      OFFSET 7.044956 -35.303574 1.339622
      CHANNELS 3 Zrotation Xrotation Yrotation
      JOINT AnkleRight
      {
        OFFSET 2.201916 -35.574377 6.064636
        CHANNELS 3 Zrotation Xrotation Yrotation
        JOINT FootRight
        {
          OFFSET -1.417416 -6.488979 -8.968365
          CHANNELS 3 Zrotation Xrotation Yrotation
          End Site
          {
            OFFSET 0 0 0
          }
        }
      }
    }
  }
}
MOTION
Frames: 6
Frame Time: 0.033333
-66.945902 80.464241 328.290551 -0.000000 0.000000 13.917567 0.000000 0.000000 -13.917567 -0.000000 0.000000 0.000000 -0.000000 0.000000 0.000000 0.000000 0.000000 0.000000 -0.000000 0.000000 0.000000 -0.000000 0.000000 0.000000 -0.000000 0.000000 0.000000 -0.000000 0.000000 0.000000 0.000000 0.000000 0.000000 0.000000 0.000000 0.000000 -0.000000 0.000000 0.000000 -0.000000 0.000000 0.000000 -0.000000 0.000000 0.000000 -0.000000 0.000000 0.000000 0.000000 0.000000 0.000000 0.000000 0.000000 0.000000 0.000000 0.000000 -13.917567 -0.000000 0.000000 0.000000 -0.000000 0.000000 0.000000 0.000000 0.000000 0.000000 0.000000 0.000000 -13.917567 -0.000000 0.000000 0.000000 -0.000000 0.000000 0.000000 0.000000 0.000000 0.000000
-67.275699 80.420622 328.240534 -0.165051 -0.016489 14.256771 0.164028 -0.024666 -14.256759 -0.000000 0.000000 0.000000 -0.000000 0.000000 0.000000 0.000000 0.000000 0.000000 -0.000000 0.000000 0.000000 1.125357 -2.732715 0.246436 -0.274253 -0.851532 -0.163762 0.440145 -4.604404 -0.151154 0.000000 0.000000 0.000000 0.000000 0.000000 0.000000 -0.906852 0.037386 0.035933 1.173120 -1.711835 -0.228609 -0.273084 1.672791 0.201325 -0.000000 0.000000 0.000000 0.000000 0.000000 0.000000 0.000000 0.000000 0.000000 0.164028 -0.024666 -14.256759 -0.000000 0.000000 0.000000 0.334889 -1.649384 -0.112935 0.000000 0.000000 0.000000 0.164028 -0.024666 -14.256759 -0.000000 0.000000 0.000000 0.382228 -5.243461 0.678824 0.000000 0.000000 0.000000
-67.558493 80.380900 328.199605 -0.300779 -0.036358 14.553137 0.300265 -0.040387 -14.553126 -0.000000 0.000000 0.000000 -0.000000 0.000000 0.000000 0.000000 0.000000 0.000000 0.495657 1.114710 -0.058814 1.408624 -5.568222 0.515286 -0.638411 -1.341327 -0.230407 0.644514 -7.852163 -0.136821 0.000000 0.000000 0.000000 0.000000 0.000000 0.000000 -1.598836 0.077663 0.067257 1.657897 -2.744816 -0.295735 -0.827824 2.227623 0.413481 0.757184 0.432081 -0.150290 0.000000 0.000000 0.000000 0.000000 0.000000 0.000000 1.214516 -0.644396 -14.428358 -1.035932 0.357077 -0.116077 0.655604 -3.156110 -0.225694 0.000000 0.000000 0.000000 1.168766 -0.441818 -14.547741 -0.941490 0.170361 -0.000331 0.819915 -10.051868 1.300238 0.000000 0.000000 0.000000
-67.794284 80.345076 328.167761 -0.407240 -0.059607 14.806882 0.408950 -0.046448 -14.806928 -0.000000 0.000000 0.000000 -0.000000 0.000000 0.000000 0.000000 0.000000 0.000000 0.677333 1.473463 -0.077058 1.677453 -6.736498 0.642311 -1.089060 -1.497022 -0.219795 0.629357 -9.767336 -0.018832 0.000000 0.000000 0.000000 0.000000 0.000000 0.000000 -2.081075 0.121241 0.093995 1.475637 -3.131862 -0.216196 -1.001247 3.114728 0.258553 0.365755 0.020268 0.033022 0.000000 0.000000 0.000000 0.000000 0.000000 0.000000 1.675742 -0.912766 -14.630053 -1.444578 0.518052 -0.159740 0.960957 -4.509934 -0.339913 0.000000 0.000000 0.000000 1.605150 -0.617690 -14.799790 -1.302437 0.246615 0.002598 1.280969 -14.218746 1.831180 0.000000 0.000000 0.000000
-67.983071 80.313149 328.145005 -0.484481 -0.086236 15.018283 0.490279 -0.042254 -15.018467 -0.000000 0.000000 0.000000 -0.000000 0.000000 0.000000 0.000000 0.000000 0.000000 0.814889 1.700408 -0.086395 1.676112 -6.907649 0.648932 -1.634297 -1.334285 -0.143309 0.408995 -10.472129 0.175550 0.000000 0.000000 0.000000 0.000000 0.000000 0.000000 -2.356893 0.168515 0.116107 0.627974 -2.890632 0.014737 -1.016383 3.933027 -0.144949 0.833151 -0.837289 0.272004 0.000000 0.000000 0.000000 0.000000 0.000000 0.000000 2.040948 -1.142131 -14.797677 -1.780255 0.666942 -0.194399 1.249899 -5.702330 -0.457237 0.000000 0.000000 0.000000 1.941864 -0.759505 -15.011252 -1.587834 0.316590 0.007330 1.728840 -17.592380 2.236702 0.000000 0.000000 0.000000
-68.124855 80.285120 328.131334 -0.532541 -0.116245 15.187673 0.544395 -0.027334 -15.188083 -0.000000 0.000000 0.000000 -0.372357 -0.741265 -0.260528 0.000000 0.000000 0.000000 0.908343 1.795856 -0.086101 1.405089 -6.074520 0.527574 -2.292443 -0.851428 -0.005980 -0.018657 -10.032954 0.447625 0.000000 0.000000 0.000000 0.000000 0.000000 0.000000 -2.427693 0.219867 0.133475 -0.901154 -2.024913 0.420408 -0.828954 4.690617 -0.798510 1.450968 -2.149723 0.631858 0.000000 0.000000 0.000000 0.000000 0.000000 0.000000 2.311087 -1.330757 -14.932361 -2.043068 0.803547 -0.220453 1.521541 -6.726356 -0.579264 0.000000 0.000000 0.000000 2.178306 -0.864886 -15.183086 -1.796256 0.380081 0.013684 2.128066 -20.077579 2.483792 0.000000 0.000000 0.000000
